<mxfile host="65bd71144e">
    <diagram id="x-2CcexpQqPS9A-1McZg" name="第 1 页">
        <mxGraphModel dx="1047" dy="732" grid="0" gridSize="10" guides="1" tooltips="1" connect="1" arrows="1" fold="1" page="1" pageScale="1" pageWidth="1654" pageHeight="1169" background="#000000" math="0" shadow="0">
            <root>
                <mxCell id="0"/>
                <mxCell id="1" parent="0"/>
                <mxCell id="2" value="IDLE" style="ellipse;whiteSpace=wrap;html=1;fillColor=#647687;fontColor=#ffffff;strokeColor=#314354;" parent="1" vertex="1">
                    <mxGeometry x="30" y="430" width="120" height="80" as="geometry"/>
                </mxCell>
                <mxCell id="3" value="IIC_START0" style="ellipse;whiteSpace=wrap;html=1;fillColor=#f0a30a;fontColor=#000000;strokeColor=#BD7000;" parent="1" vertex="1">
                    <mxGeometry x="30" y="120" width="120" height="80" as="geometry"/>
                </mxCell>
                <mxCell id="4" value="IIC_ADDR_DIVICE0" style="ellipse;whiteSpace=wrap;html=1;fillColor=#76608a;fontColor=#ffffff;strokeColor=#432D57;" parent="1" vertex="1">
                    <mxGeometry x="230" y="120" width="120" height="80" as="geometry"/>
                </mxCell>
                <mxCell id="5" value="IIC_ADDR_ACK0" style="ellipse;whiteSpace=wrap;html=1;fillColor=#76608a;fontColor=#ffffff;strokeColor=#432D57;" parent="1" vertex="1">
                    <mxGeometry x="460" y="120" width="120" height="80" as="geometry"/>
                </mxCell>
                <mxCell id="6" value="IIC_ADDR_REG0" style="ellipse;whiteSpace=wrap;html=1;fillColor=#76608a;fontColor=#ffffff;strokeColor=#432D57;" parent="1" vertex="1">
                    <mxGeometry x="460" y="310" width="120" height="80" as="geometry"/>
                </mxCell>
                <mxCell id="7" value="IIC_REG0_ACK0" style="ellipse;whiteSpace=wrap;html=1;fillColor=#76608a;fontColor=#ffffff;strokeColor=#432D57;" parent="1" vertex="1">
                    <mxGeometry x="680" y="310" width="120" height="80" as="geometry"/>
                </mxCell>
                <mxCell id="8" value="IIC_ADDR_REG1" style="ellipse;whiteSpace=wrap;html=1;fillColor=#76608a;fontColor=#ffffff;strokeColor=#432D57;" parent="1" vertex="1">
                    <mxGeometry x="680" y="120" width="120" height="80" as="geometry"/>
                </mxCell>
                <mxCell id="9" value="IIC_REG1_ACK1" style="ellipse;whiteSpace=wrap;html=1;fillColor=#76608a;fontColor=#ffffff;strokeColor=#432D57;" parent="1" vertex="1">
                    <mxGeometry x="980" y="120" width="120" height="80" as="geometry"/>
                </mxCell>
                <mxCell id="10" value="IIC_START1" style="ellipse;whiteSpace=wrap;html=1;fillColor=#f0a30a;fontColor=#000000;strokeColor=#BD7000;" parent="1" vertex="1">
                    <mxGeometry x="980" y="260" width="120" height="80" as="geometry"/>
                </mxCell>
                <mxCell id="11" value="IIC_WR_DATA" style="ellipse;whiteSpace=wrap;html=1;fillColor=#a0522d;strokeColor=#6D1F00;fontColor=#ffffff;" parent="1" vertex="1">
                    <mxGeometry x="1210" y="120" width="120" height="80" as="geometry"/>
                </mxCell>
                <mxCell id="12" value="IIC_WR_ACK" style="ellipse;whiteSpace=wrap;html=1;fillColor=#76608a;fontColor=#ffffff;strokeColor=#432D57;" parent="1" vertex="1">
                    <mxGeometry x="1400" y="120" width="120" height="80" as="geometry"/>
                </mxCell>
                <mxCell id="13" value="IIC_ADDR_DIVICE1" style="ellipse;whiteSpace=wrap;html=1;fillColor=#76608a;fontColor=#ffffff;strokeColor=#432D57;" parent="1" vertex="1">
                    <mxGeometry x="980" y="400" width="120" height="80" as="geometry"/>
                </mxCell>
                <mxCell id="14" value="IIC_DIVICE_ACK1" style="ellipse;whiteSpace=wrap;html=1;fillColor=#76608a;fontColor=#ffffff;strokeColor=#432D57;" parent="1" vertex="1">
                    <mxGeometry x="980" y="550" width="120" height="80" as="geometry"/>
                </mxCell>
                <mxCell id="15" value="IIC_RD_DATA" style="ellipse;whiteSpace=wrap;html=1;fillColor=#a0522d;strokeColor=#6D1F00;fontColor=#ffffff;" parent="1" vertex="1">
                    <mxGeometry x="1210" y="550" width="120" height="80" as="geometry"/>
                </mxCell>
                <mxCell id="16" value="IIC_RD_ACK" style="ellipse;whiteSpace=wrap;html=1;fillColor=#76608a;fontColor=#ffffff;strokeColor=#432D57;" parent="1" vertex="1">
                    <mxGeometry x="1380" y="550" width="120" height="80" as="geometry"/>
                </mxCell>
                <mxCell id="17" value="IIC_STOP" style="ellipse;whiteSpace=wrap;html=1;fillColor=#e51400;fontColor=#ffffff;strokeColor=#B20000;" parent="1" vertex="1">
                    <mxGeometry x="30" y="770" width="120" height="80" as="geometry"/>
                </mxCell>
                <mxCell id="20" value="" style="endArrow=classic;html=1;entryX=0;entryY=0.5;entryDx=0;entryDy=0;" parent="1" target="4" edge="1">
                    <mxGeometry width="50" height="50" relative="1" as="geometry">
                        <mxPoint x="150" y="159.70999999999998" as="sourcePoint"/>
                        <mxPoint x="210" y="159.70999999999998" as="targetPoint"/>
                        <Array as="points">
                            <mxPoint x="180" y="159.70999999999998"/>
                            <mxPoint x="190" y="159.70999999999998"/>
                        </Array>
                    </mxGeometry>
                </mxCell>
                <mxCell id="21" value="" style="endArrow=classic;html=1;entryX=0;entryY=0.5;entryDx=0;entryDy=0;" parent="1" target="5" edge="1">
                    <mxGeometry width="50" height="50" relative="1" as="geometry">
                        <mxPoint x="350" y="159.64" as="sourcePoint"/>
                        <mxPoint x="410" y="159.64" as="targetPoint"/>
                        <Array as="points">
                            <mxPoint x="380" y="159.64"/>
                            <mxPoint x="390" y="159.64"/>
                        </Array>
                    </mxGeometry>
                </mxCell>
                <mxCell id="22" value="" style="endArrow=classic;html=1;" parent="1" target="6" edge="1">
                    <mxGeometry width="50" height="50" relative="1" as="geometry">
                        <mxPoint x="519.71" y="200" as="sourcePoint"/>
                        <mxPoint x="519.71" y="260.36" as="targetPoint"/>
                        <Array as="points">
                            <mxPoint x="519.71" y="230.36"/>
                        </Array>
                    </mxGeometry>
                </mxCell>
                <mxCell id="23" value="" style="endArrow=classic;html=1;entryX=0;entryY=0.5;entryDx=0;entryDy=0;" parent="1" target="7" edge="1">
                    <mxGeometry width="50" height="50" relative="1" as="geometry">
                        <mxPoint x="580" y="349.78999999999996" as="sourcePoint"/>
                        <mxPoint x="660" y="350" as="targetPoint"/>
                        <Array as="points">
                            <mxPoint x="610" y="349.78999999999996"/>
                            <mxPoint x="620" y="349.78999999999996"/>
                        </Array>
                    </mxGeometry>
                </mxCell>
                <mxCell id="24" value="" style="endArrow=classic;html=1;entryX=0.5;entryY=1;entryDx=0;entryDy=0;exitX=0.5;exitY=0;exitDx=0;exitDy=0;" parent="1" source="7" target="8" edge="1">
                    <mxGeometry width="50" height="50" relative="1" as="geometry">
                        <mxPoint x="670" y="270" as="sourcePoint"/>
                        <mxPoint x="720" y="220" as="targetPoint"/>
                    </mxGeometry>
                </mxCell>
                <mxCell id="25" value="" style="endArrow=classic;html=1;exitX=1;exitY=0.5;exitDx=0;exitDy=0;entryX=0;entryY=0.5;entryDx=0;entryDy=0;" parent="1" source="5" target="8" edge="1">
                    <mxGeometry width="50" height="50" relative="1" as="geometry">
                        <mxPoint x="610" y="240" as="sourcePoint"/>
                        <mxPoint x="660" y="190" as="targetPoint"/>
                    </mxGeometry>
                </mxCell>
                <mxCell id="26" value="" style="endArrow=classic;html=1;exitX=1;exitY=0.5;exitDx=0;exitDy=0;entryX=0;entryY=0.5;entryDx=0;entryDy=0;" parent="1" source="8" target="9" edge="1">
                    <mxGeometry width="50" height="50" relative="1" as="geometry">
                        <mxPoint x="810" y="250" as="sourcePoint"/>
                        <mxPoint x="860" y="200" as="targetPoint"/>
                    </mxGeometry>
                </mxCell>
                <mxCell id="27" value="" style="endArrow=classic;html=1;exitX=0.5;exitY=1;exitDx=0;exitDy=0;entryX=0.5;entryY=0;entryDx=0;entryDy=0;" parent="1" source="9" target="10" edge="1">
                    <mxGeometry width="50" height="50" relative="1" as="geometry">
                        <mxPoint x="910" y="280" as="sourcePoint"/>
                        <mxPoint x="960" y="230" as="targetPoint"/>
                    </mxGeometry>
                </mxCell>
                <mxCell id="28" value="" style="endArrow=classic;html=1;exitX=0.5;exitY=1;exitDx=0;exitDy=0;entryX=0.5;entryY=0;entryDx=0;entryDy=0;" parent="1" source="10" target="13" edge="1">
                    <mxGeometry width="50" height="50" relative="1" as="geometry">
                        <mxPoint x="900" y="360" as="sourcePoint"/>
                        <mxPoint x="950" y="310" as="targetPoint"/>
                    </mxGeometry>
                </mxCell>
                <mxCell id="29" value="" style="endArrow=classic;html=1;exitX=1;exitY=0.5;exitDx=0;exitDy=0;" parent="1" source="9" target="11" edge="1">
                    <mxGeometry width="50" height="50" relative="1" as="geometry">
                        <mxPoint x="1200" y="300" as="sourcePoint"/>
                        <mxPoint x="1250" y="250" as="targetPoint"/>
                    </mxGeometry>
                </mxCell>
                <mxCell id="30" value="" style="endArrow=classic;html=1;exitX=1;exitY=0.5;exitDx=0;exitDy=0;entryX=0;entryY=0.5;entryDx=0;entryDy=0;" parent="1" source="11" target="12" edge="1">
                    <mxGeometry width="50" height="50" relative="1" as="geometry">
                        <mxPoint x="1250" y="330" as="sourcePoint"/>
                        <mxPoint x="1300" y="280" as="targetPoint"/>
                    </mxGeometry>
                </mxCell>
                <mxCell id="31" value="" style="endArrow=classic;html=1;exitX=0.5;exitY=1;exitDx=0;exitDy=0;" parent="1" source="13" edge="1">
                    <mxGeometry width="50" height="50" relative="1" as="geometry">
                        <mxPoint x="850" y="560" as="sourcePoint"/>
                        <mxPoint x="1040" y="550" as="targetPoint"/>
                    </mxGeometry>
                </mxCell>
                <mxCell id="32" value="" style="endArrow=classic;html=1;entryX=0;entryY=0.5;entryDx=0;entryDy=0;" parent="1" target="15" edge="1">
                    <mxGeometry width="50" height="50" relative="1" as="geometry">
                        <mxPoint x="1100" y="589.76" as="sourcePoint"/>
                        <mxPoint x="1160" y="589.76" as="targetPoint"/>
                    </mxGeometry>
                </mxCell>
                <mxCell id="33" value="" style="endArrow=classic;html=1;exitX=1;exitY=0.5;exitDx=0;exitDy=0;" parent="1" source="15" edge="1">
                    <mxGeometry width="50" height="50" relative="1" as="geometry">
                        <mxPoint x="660" y="440" as="sourcePoint"/>
                        <mxPoint x="1380" y="590" as="targetPoint"/>
                    </mxGeometry>
                </mxCell>
                <mxCell id="36" value="" style="endArrow=classic;html=1;entryX=0.5;entryY=1;entryDx=0;entryDy=0;" parent="1" target="3" edge="1">
                    <mxGeometry width="50" height="50" relative="1" as="geometry">
                        <mxPoint x="90" y="430" as="sourcePoint"/>
                        <mxPoint x="80" y="290" as="targetPoint"/>
                    </mxGeometry>
                </mxCell>
                <mxCell id="37" value="" style="endArrow=classic;html=1;exitX=0.5;exitY=0;exitDx=0;exitDy=0;entryX=0.5;entryY=1;entryDx=0;entryDy=0;" parent="1" source="17" target="2" edge="1">
                    <mxGeometry width="50" height="50" relative="1" as="geometry">
                        <mxPoint x="190" y="760" as="sourcePoint"/>
                        <mxPoint x="250" y="530" as="targetPoint"/>
                    </mxGeometry>
                </mxCell>
                <mxCell id="38" value="" style="endArrow=classic;html=1;exitX=0.5;exitY=1;exitDx=0;exitDy=0;" parent="1" source="16" edge="1">
                    <mxGeometry width="50" height="50" relative="1" as="geometry">
                        <mxPoint x="1080" y="750" as="sourcePoint"/>
                        <mxPoint x="150" y="800" as="targetPoint"/>
                        <Array as="points">
                            <mxPoint x="1440" y="800"/>
                        </Array>
                    </mxGeometry>
                </mxCell>
                <mxCell id="39" value="" style="endArrow=classic;html=1;exitX=1;exitY=0.5;exitDx=0;exitDy=0;" parent="1" source="12" edge="1">
                    <mxGeometry width="50" height="50" relative="1" as="geometry">
                        <mxPoint x="1260" y="910" as="sourcePoint"/>
                        <mxPoint x="150" y="820" as="targetPoint"/>
                        <Array as="points">
                            <mxPoint x="1560" y="160"/>
                            <mxPoint x="1560" y="480"/>
                            <mxPoint x="1560" y="820"/>
                            <mxPoint x="180" y="820"/>
                        </Array>
                    </mxGeometry>
                </mxCell>
                <mxCell id="40" value="cnt_div == CLK_DIV - 1" style="text;html=1;align=center;verticalAlign=middle;resizable=0;points=[];autosize=1;strokeColor=none;fillColor=none;" parent="1" vertex="1">
                    <mxGeometry x="100" y="82" width="150" height="30" as="geometry"/>
                </mxCell>
                <mxCell id="41" value="cnt_div == CLK_DIV - 1&amp;nbsp; &amp;nbsp; &amp;nbsp; &amp;nbsp; &amp;nbsp; &amp;nbsp; &amp;nbsp; &amp;nbsp; &amp;nbsp;&amp;amp;&amp;amp;&lt;br&gt;cnt_bit == ADDR_DIVICE_WIDTH - 1" style="text;html=1;align=center;verticalAlign=middle;resizable=0;points=[];autosize=1;strokeColor=none;fillColor=none;" parent="1" vertex="1">
                    <mxGeometry x="300" y="77" width="220" height="40" as="geometry"/>
                </mxCell>
                <mxCell id="42" value="&amp;nbsp; &amp;nbsp;cnt_div == CLK_DIV - 1&amp;amp;&amp;amp;&amp;nbsp;&lt;br&gt;byte_number_reg == 2" style="text;html=1;align=center;verticalAlign=middle;resizable=0;points=[];autosize=1;strokeColor=none;fillColor=none;" parent="1" vertex="1">
                    <mxGeometry x="340" y="240" width="180" height="40" as="geometry"/>
                </mxCell>
                <mxCell id="44" value="&amp;nbsp; &amp;nbsp; &amp;nbsp; &amp;nbsp; cnt_div == CLK_DIV - 1 &amp;amp;&amp;amp;&amp;nbsp;&lt;br&gt;byte_number_reg == 1" style="text;html=1;align=center;verticalAlign=middle;resizable=0;points=[];autosize=1;strokeColor=none;fillColor=none;" parent="1" vertex="1">
                    <mxGeometry x="545" y="72" width="200" height="40" as="geometry"/>
                </mxCell>
                <mxCell id="45" value="cnt_div == CLK_DIV - 1&amp;nbsp; &amp;nbsp; &amp;nbsp; &amp;nbsp; &amp;nbsp; &amp;nbsp; &amp;nbsp; &amp;nbsp; &amp;nbsp;&amp;amp;&amp;amp;&lt;br&gt;cnt_bit == ADDR_DIVICE_WIDTH - 1" style="text;html=1;align=center;verticalAlign=middle;resizable=0;points=[];autosize=1;strokeColor=none;fillColor=none;" parent="1" vertex="1">
                    <mxGeometry x="510" y="410" width="220" height="40" as="geometry"/>
                </mxCell>
                <mxCell id="46" value="cnt_div == CLK_DIV - 1&amp;nbsp; &amp;nbsp; &amp;nbsp; &amp;nbsp; &amp;nbsp; &amp;nbsp; &amp;nbsp; &amp;nbsp; &amp;nbsp;&amp;amp;&amp;amp;&lt;br&gt;cnt_bit == ADDR_DIVICE_WIDTH - 1" style="text;html=1;align=center;verticalAlign=middle;resizable=0;points=[];autosize=1;strokeColor=none;fillColor=none;" parent="1" vertex="1">
                    <mxGeometry x="775" y="72" width="220" height="40" as="geometry"/>
                </mxCell>
                <mxCell id="47" value="cnt_div == CLK_DIV - 1" style="text;html=1;align=center;verticalAlign=middle;resizable=0;points=[];autosize=1;strokeColor=none;fillColor=none;" parent="1" vertex="1">
                    <mxGeometry x="752" y="240" width="150" height="30" as="geometry"/>
                </mxCell>
                <mxCell id="49" value="&amp;nbsp; &amp;nbsp; &amp;nbsp; &amp;nbsp; &amp;nbsp; &amp;nbsp; &amp;nbsp; &amp;nbsp; &amp;nbsp; &amp;nbsp; &amp;nbsp;cnt_div == CLK_DIV - 1 &amp;amp;&amp;amp;&amp;nbsp;&lt;br&gt;iic_mode == 0" style="text;html=1;align=center;verticalAlign=middle;resizable=0;points=[];autosize=1;strokeColor=none;fillColor=none;" parent="1" vertex="1">
                    <mxGeometry x="995" y="72" width="240" height="40" as="geometry"/>
                </mxCell>
                <mxCell id="50" value="cnt_div == CLK_DIV - 1&amp;nbsp; &amp;nbsp; &amp;amp;&amp;amp;&lt;br&gt;cnt_bit == DATA_WIDTH - 1" style="text;html=1;align=center;verticalAlign=middle;resizable=0;points=[];autosize=1;strokeColor=none;fillColor=none;" parent="1" vertex="1">
                    <mxGeometry x="1260" y="72" width="180" height="40" as="geometry"/>
                </mxCell>
                <mxCell id="52" value="cnt_div == CLK_DIV - 1" style="text;html=1;align=center;verticalAlign=middle;resizable=0;points=[];autosize=1;strokeColor=none;fillColor=none;" parent="1" vertex="1">
                    <mxGeometry x="1060" y="360" width="150" height="30" as="geometry"/>
                </mxCell>
                <mxCell id="53" value="cnt_div == CLK_DIV - 1&amp;nbsp; &amp;nbsp; &amp;nbsp; &amp;nbsp; &amp;nbsp; &amp;nbsp; &amp;nbsp; &amp;nbsp; &amp;nbsp;&amp;amp;&amp;amp;&lt;br&gt;cnt_bit == ADDR_DIVICE_WIDTH - 1" style="text;html=1;align=center;verticalAlign=middle;resizable=0;points=[];autosize=1;strokeColor=none;fillColor=none;" parent="1" vertex="1">
                    <mxGeometry x="810" y="500" width="220" height="40" as="geometry"/>
                </mxCell>
                <mxCell id="54" value="cnt_div == CLK_DIV - 1" style="text;html=1;align=center;verticalAlign=middle;resizable=0;points=[];autosize=1;strokeColor=none;fillColor=none;" parent="1" vertex="1">
                    <mxGeometry x="1070" y="520" width="150" height="30" as="geometry"/>
                </mxCell>
                <mxCell id="55" value="cnt_div == CLK_DIV - 1&amp;nbsp; &amp;nbsp; &amp;amp;&amp;amp;&lt;br&gt;cnt_bit == DATA_WIDTH - 1" style="text;html=1;align=center;verticalAlign=middle;resizable=0;points=[];autosize=1;strokeColor=none;fillColor=none;" parent="1" vertex="1">
                    <mxGeometry x="1270" y="508" width="180" height="40" as="geometry"/>
                </mxCell>
                <mxCell id="56" value="cnt_div == CLK_DIV - 1&amp;nbsp; &amp;nbsp; &amp;amp;&amp;amp;&lt;br&gt;cnt_bit == DATA_WIDTH - 1" style="text;html=1;align=center;verticalAlign=middle;resizable=0;points=[];autosize=1;strokeColor=none;fillColor=none;" parent="1" vertex="1">
                    <mxGeometry x="1253" y="744" width="180" height="40" as="geometry"/>
                </mxCell>
                <mxCell id="57" value="cnt_div == CLK_DIV - 1&amp;nbsp; &amp;nbsp; &amp;amp;&amp;amp;&lt;br&gt;cnt_bit == DATA_WIDTH - 1" style="text;html=1;align=center;verticalAlign=middle;resizable=0;points=[];autosize=1;strokeColor=none;fillColor=none;" parent="1" vertex="1">
                    <mxGeometry x="1260" y="832" width="180" height="40" as="geometry"/>
                </mxCell>
                <mxCell id="58" value="cnt_div == CLK_DIV - 1" style="text;html=1;align=center;verticalAlign=middle;resizable=0;points=[];autosize=1;strokeColor=none;fillColor=none;" parent="1" vertex="1">
                    <mxGeometry x="100" y="630" width="150" height="30" as="geometry"/>
                </mxCell>
                <mxCell id="59" value="req" style="text;html=1;align=center;verticalAlign=middle;resizable=0;points=[];autosize=1;strokeColor=none;fillColor=none;" parent="1" vertex="1">
                    <mxGeometry x="100" y="320" width="40" height="30" as="geometry"/>
                </mxCell>
                <mxCell id="60" value="&amp;nbsp; &amp;nbsp; &amp;nbsp; &amp;nbsp; &amp;nbsp; &amp;nbsp; &amp;nbsp; &amp;nbsp; &amp;nbsp; &amp;nbsp; &amp;nbsp;cnt_div == CLK_DIV - 1 &amp;amp;&amp;amp;&amp;nbsp;&lt;br&gt;iic_mode == 1" style="text;html=1;align=center;verticalAlign=middle;resizable=0;points=[];autosize=1;strokeColor=none;fillColor=none;" parent="1" vertex="1">
                    <mxGeometry x="990" y="200" width="240" height="40" as="geometry"/>
                </mxCell>
                <mxCell id="62" value="" style="curved=1;endArrow=classic;html=1;entryX=0.5;entryY=1;entryDx=0;entryDy=0;exitX=0.5;exitY=1;exitDx=0;exitDy=0;" parent="1" source="16" target="15" edge="1">
                    <mxGeometry width="50" height="50" relative="1" as="geometry">
                        <mxPoint x="1311" y="700" as="sourcePoint"/>
                        <mxPoint x="1361" y="650" as="targetPoint"/>
                        <Array as="points">
                            <mxPoint x="1414" y="674"/>
                            <mxPoint x="1311" y="675"/>
                        </Array>
                    </mxGeometry>
                </mxCell>
                <mxCell id="63" value="" style="curved=1;endArrow=classic;html=1;entryX=0.5;entryY=1;entryDx=0;entryDy=0;" parent="1" target="11" edge="1">
                    <mxGeometry width="50" height="50" relative="1" as="geometry">
                        <mxPoint x="1458" y="195" as="sourcePoint"/>
                        <mxPoint x="1290" y="202" as="targetPoint"/>
                        <Array as="points">
                            <mxPoint x="1434" y="246"/>
                            <mxPoint x="1321" y="252"/>
                        </Array>
                    </mxGeometry>
                </mxCell>
            </root>
        </mxGraphModel>
    </diagram>
</mxfile>